<?xml version="1.0" encoding="utf-8" standalone="no"?>
<!DOCTYPE svg PUBLIC "-//W3C//DTD SVG 1.1//EN"
  "http://www.w3.org/Graphics/SVG/1.1/DTD/svg11.dtd">
<svg xmlns:xlink="http://www.w3.org/1999/xlink" width="460.8pt" height="345.6pt" viewBox="0 0 460.8 345.6" xmlns="http://www.w3.org/2000/svg" version="1.1">
 <metadata>
  <rdf:RDF xmlns:dc="http://purl.org/dc/elements/1.1/" xmlns:cc="http://creativecommons.org/ns#" xmlns:rdf="http://www.w3.org/1999/02/22-rdf-syntax-ns#">
   <cc:Work>
    <dc:type rdf:resource="http://purl.org/dc/dcmitype/StillImage"/>
    <dc:date>2023-09-06T15:33:11.720098</dc:date>
    <dc:format>image/svg+xml</dc:format>
    <dc:creator>
     <cc:Agent>
      <dc:title>Matplotlib v3.6.3, https://matplotlib.org/</dc:title>
     </cc:Agent>
    </dc:creator>
   </cc:Work>
  </rdf:RDF>
 </metadata>
 <defs>
  <style type="text/css">*{stroke-linejoin: round; stroke-linecap: butt}</style>
 </defs>
 <g id="figure_1">
  <g id="patch_1">
   <path d="M 0 345.6 
L 460.8 345.6 
L 460.8 0 
L 0 0 
z
" style="fill: #ffffff"/>
  </g>
  <g id="axes_1">
   <g id="patch_2">
    <path d="M 283.568599 83.716459 
C 281.490978 75.962671 277.776232 68.743168 272.675042 62.545138 
C 267.573851 56.347107 261.203601 51.313174 253.99417 47.783041 
C 246.78474 44.252907 238.902028 42.307807 230.877978 42.078998 
C 222.853928 41.85019 214.873185 43.342939 207.474307 46.456512 
L 229.27584 98.26416 
L 283.568599 83.716459 
z
" style="fill: #262626; opacity: 0.5; stroke: #262626; stroke-linejoin: miter"/>
   </g>
   <g id="patch_3">
    <path d="M 203.964052 42.06658 
C 199.187004 44.076842 194.710872 46.738197 190.663031 49.974911 
C 186.615191 53.211626 183.034405 56.992703 180.022573 61.210546 
L 225.765585 93.874228 
L 203.964052 42.06658 
z
" style="fill: #4c443b; opacity: 0.5; stroke: #4c443b; stroke-linejoin: miter"/>
   </g>
   <g id="patch_4">
    <path d="M 183.532828 65.600478 
C 178.712417 72.351098 175.445597 80.085837 173.967454 88.248087 
C 172.489311 96.410338 172.836174 104.799497 174.983082 112.811863 
C 177.129989 120.82423 181.024178 128.262886 186.385412 134.59253 
C 191.746647 140.922175 198.443167 145.987244 205.993076 149.423247 
L 229.27584 98.26416 
L 183.532828 65.600478 
z
" style="fill: #4c4000; opacity: 0.5; stroke: #4c4000; stroke-linejoin: miter"/>
   </g>
   <g id="patch_5">
    <path d="M 205.993076 149.423247 
C 217.387953 154.609114 230.1952 155.842198 242.37018 152.925641 
C 254.54516 150.009084 265.403557 143.106816 273.21186 133.320763 
L 229.27584 98.26416 
L 205.993076 149.423247 
z
" style="fill: #4c1e15; opacity: 0.5; stroke: #4c1e15; stroke-linejoin: miter"/>
   </g>
   <g id="patch_6">
    <path d="M 273.21186 133.320763 
C 278.701135 126.44112 282.498587 118.367396 284.297381 109.751947 
C 286.096176 101.136498 285.846524 92.21779 283.568598 83.716457 
L 229.27584 98.26416 
L 273.21186 133.320763 
z
" style="fill: #48452a; opacity: 0.5; stroke: #48452a; stroke-linejoin: miter"/>
   </g>
   <g id="patch_7">
    <path d="M 284.692759 82.592299 
C 282.615138 74.838511 278.900392 67.619008 273.799202 61.420978 
C 268.698011 55.222947 262.327761 50.189014 255.11833 46.658881 
C 247.9089 43.128747 240.026188 41.183647 232.002138 40.954838 
C 223.978088 40.72603 215.997345 42.218779 208.598467 45.332352 
L 230.4 97.14 
L 284.692759 82.592299 
z
" style="fill: #808080"/>
   </g>
   <g id="patch_8">
    <path d="M 205.088212 40.94242 
C 200.311164 42.952682 195.835032 45.614037 191.787191 48.850751 
C 187.739351 52.087466 184.158565 55.868543 181.146733 60.086386 
L 226.889745 92.750068 
L 205.088212 40.94242 
z
" style="fill: #ffe4c4"/>
   </g>
   <g id="patch_9">
    <path d="M 184.656988 64.476318 
C 179.836577 71.226938 176.569757 78.961677 175.091614 87.123927 
C 173.613471 95.286178 173.960334 103.675337 176.107242 111.687703 
C 178.254149 119.70007 182.148338 127.138726 187.509572 133.46837 
C 192.870807 139.798015 199.567327 144.863084 207.117236 148.299087 
L 230.4 97.14 
L 184.656988 64.476318 
z
" style="fill: #ffd700"/>
   </g>
   <g id="patch_10">
    <path d="M 207.117236 148.299087 
C 218.512113 153.484954 231.31936 154.718038 243.49434 151.801481 
C 255.66932 148.884924 266.527717 141.982656 274.33602 132.196603 
L 230.4 97.14 
L 207.117236 148.299087 
z
" style="fill: #ff6347"/>
   </g>
   <g id="patch_11">
    <path d="M 274.33602 132.196603 
C 279.825295 125.31696 283.622747 117.243236 285.421541 108.627787 
C 287.220336 100.012338 286.970684 91.09363 284.692758 82.592297 
L 230.4 97.14 
L 274.33602 132.196603 
z
" style="fill: #f0e68c"/>
   </g>
   <g id="matplotlib.axis_1"/>
   <g id="matplotlib.axis_2"/>
   <g id="text_1">
    <!-- A -->
    <g transform="translate(257.590163 44.370144) scale(0.1 -0.1)">
     <defs>
      <path id="DejaVuSans-41" d="M 2188 4044 
L 1331 1722 
L 3047 1722 
L 2188 4044 
z
M 1831 4666 
L 2547 4666 
L 4325 0 
L 3669 0 
L 3244 1197 
L 1141 1197 
L 716 0 
L 50 0 
L 1831 4666 
z
" transform="scale(0.015625)"/>
     </defs>
     <use xlink:href="#DejaVuSans-41"/>
    </g>
   </g>
   <g id="text_2">
    <!-- 27.2% -->
    <g transform="translate(229.347405 69.610703) scale(0.1 -0.1)">
     <defs>
      <path id="DejaVuSans-32" d="M 1228 531 
L 3431 531 
L 3431 0 
L 469 0 
L 469 531 
Q 828 903 1448 1529 
Q 2069 2156 2228 2338 
Q 2531 2678 2651 2914 
Q 2772 3150 2772 3378 
Q 2772 3750 2511 3984 
Q 2250 4219 1831 4219 
Q 1534 4219 1204 4116 
Q 875 4013 500 3803 
L 500 4441 
Q 881 4594 1212 4672 
Q 1544 4750 1819 4750 
Q 2544 4750 2975 4387 
Q 3406 4025 3406 3419 
Q 3406 3131 3298 2873 
Q 3191 2616 2906 2266 
Q 2828 2175 2409 1742 
Q 1991 1309 1228 531 
z
" transform="scale(0.015625)"/>
      <path id="DejaVuSans-37" d="M 525 4666 
L 3525 4666 
L 3525 4397 
L 1831 0 
L 1172 0 
L 2766 4134 
L 525 4134 
L 525 4666 
z
" transform="scale(0.015625)"/>
      <path id="DejaVuSans-2e" d="M 684 794 
L 1344 794 
L 1344 0 
L 684 0 
L 684 794 
z
" transform="scale(0.015625)"/>
      <path id="DejaVuSans-25" d="M 4653 2053 
Q 4381 2053 4226 1822 
Q 4072 1591 4072 1178 
Q 4072 772 4226 539 
Q 4381 306 4653 306 
Q 4919 306 5073 539 
Q 5228 772 5228 1178 
Q 5228 1588 5073 1820 
Q 4919 2053 4653 2053 
z
M 4653 2450 
Q 5147 2450 5437 2106 
Q 5728 1763 5728 1178 
Q 5728 594 5436 251 
Q 5144 -91 4653 -91 
Q 4153 -91 3862 251 
Q 3572 594 3572 1178 
Q 3572 1766 3864 2108 
Q 4156 2450 4653 2450 
z
M 1428 4353 
Q 1159 4353 1004 4120 
Q 850 3888 850 3481 
Q 850 3069 1003 2837 
Q 1156 2606 1428 2606 
Q 1700 2606 1854 2837 
Q 2009 3069 2009 3481 
Q 2009 3884 1853 4118 
Q 1697 4353 1428 4353 
z
M 4250 4750 
L 4750 4750 
L 1831 -91 
L 1331 -91 
L 4250 4750 
z
M 1428 4750 
Q 1922 4750 2215 4408 
Q 2509 4066 2509 3481 
Q 2509 2891 2217 2550 
Q 1925 2209 1428 2209 
Q 931 2209 642 2551 
Q 353 2894 353 3481 
Q 353 4063 643 4406 
Q 934 4750 1428 4750 
z
" transform="scale(0.015625)"/>
     </defs>
     <use xlink:href="#DejaVuSans-32"/>
     <use xlink:href="#DejaVuSans-37" x="63.623047"/>
     <use xlink:href="#DejaVuSans-2e" x="127.246094"/>
     <use xlink:href="#DejaVuSans-32" x="159.033203"/>
     <use xlink:href="#DejaVuSans-25" x="222.65625"/>
    </g>
   </g>
   <g id="text_3">
    <!-- B -->
    <g transform="translate(181.415999 47.220195) scale(0.1 -0.1)">
     <defs>
      <path id="DejaVuSans-42" d="M 1259 2228 
L 1259 519 
L 2272 519 
Q 2781 519 3026 730 
Q 3272 941 3272 1375 
Q 3272 1813 3026 2020 
Q 2781 2228 2272 2228 
L 1259 2228 
z
M 1259 4147 
L 1259 2741 
L 2194 2741 
Q 2656 2741 2882 2914 
Q 3109 3088 3109 3444 
Q 3109 3797 2882 3972 
Q 2656 4147 2194 4147 
L 1259 4147 
z
M 628 4666 
L 2241 4666 
Q 2963 4666 3353 4366 
Q 3744 4066 3744 3513 
Q 3744 3084 3544 2831 
Q 3344 2578 2956 2516 
Q 3422 2416 3680 2098 
Q 3938 1781 3938 1306 
Q 3938 681 3513 340 
Q 3088 0 2303 0 
L 628 0 
L 628 4666 
z
" transform="scale(0.015625)"/>
     </defs>
     <use xlink:href="#DejaVuSans-42"/>
    </g>
   </g>
   <g id="text_4">
    <!-- 8.8% -->
    <g transform="translate(193.125869 69.169853) scale(0.1 -0.1)">
     <defs>
      <path id="DejaVuSans-38" d="M 2034 2216 
Q 1584 2216 1326 1975 
Q 1069 1734 1069 1313 
Q 1069 891 1326 650 
Q 1584 409 2034 409 
Q 2484 409 2743 651 
Q 3003 894 3003 1313 
Q 3003 1734 2745 1975 
Q 2488 2216 2034 2216 
z
M 1403 2484 
Q 997 2584 770 2862 
Q 544 3141 544 3541 
Q 544 4100 942 4425 
Q 1341 4750 2034 4750 
Q 2731 4750 3128 4425 
Q 3525 4100 3525 3541 
Q 3525 3141 3298 2862 
Q 3072 2584 2669 2484 
Q 3125 2378 3379 2068 
Q 3634 1759 3634 1313 
Q 3634 634 3220 271 
Q 2806 -91 2034 -91 
Q 1263 -91 848 271 
Q 434 634 434 1313 
Q 434 1759 690 2068 
Q 947 2378 1403 2484 
z
M 1172 3481 
Q 1172 3119 1398 2916 
Q 1625 2713 2034 2713 
Q 2441 2713 2670 2916 
Q 2900 3119 2900 3481 
Q 2900 3844 2670 4047 
Q 2441 4250 2034 4250 
Q 1625 4250 1398 4047 
Q 1172 3844 1172 3481 
z
" transform="scale(0.015625)"/>
     </defs>
     <use xlink:href="#DejaVuSans-38"/>
     <use xlink:href="#DejaVuSans-2e" x="63.623047"/>
     <use xlink:href="#DejaVuSans-38" x="95.410156"/>
     <use xlink:href="#DejaVuSans-25" x="159.033203"/>
    </g>
   </g>
   <g id="text_5">
    <!-- C -->
    <g transform="translate(163.695154 115.901849) scale(0.1 -0.1)">
     <defs>
      <path id="DejaVuSans-43" d="M 4122 4306 
L 4122 3641 
Q 3803 3938 3442 4084 
Q 3081 4231 2675 4231 
Q 1875 4231 1450 3742 
Q 1025 3253 1025 2328 
Q 1025 1406 1450 917 
Q 1875 428 2675 428 
Q 3081 428 3442 575 
Q 3803 722 4122 1019 
L 4122 359 
Q 3791 134 3420 21 
Q 3050 -91 2638 -91 
Q 1578 -91 968 557 
Q 359 1206 359 2328 
Q 359 3453 968 4101 
Q 1578 4750 2638 4750 
Q 3056 4750 3426 4639 
Q 3797 4528 4122 4306 
z
" transform="scale(0.015625)"/>
     </defs>
     <use xlink:href="#DejaVuSans-43"/>
    </g>
   </g>
   <g id="text_6">
    <!-- 28.1% -->
    <g transform="translate(181.940751 108.627997) scale(0.1 -0.1)">
     <defs>
      <path id="DejaVuSans-31" d="M 794 531 
L 1825 531 
L 1825 4091 
L 703 3866 
L 703 4441 
L 1819 4666 
L 2450 4666 
L 2450 531 
L 3481 531 
L 3481 0 
L 794 0 
L 794 531 
z
" transform="scale(0.015625)"/>
     </defs>
     <use xlink:href="#DejaVuSans-32"/>
     <use xlink:href="#DejaVuSans-38" x="63.623047"/>
     <use xlink:href="#DejaVuSans-2e" x="127.246094"/>
     <use xlink:href="#DejaVuSans-31" x="159.033203"/>
     <use xlink:href="#DejaVuSans-25" x="222.65625"/>
    </g>
   </g>
   <g id="text_7">
    <!-- D -->
    <g transform="translate(244.803774 160.027004) scale(0.1 -0.1)">
     <defs>
      <path id="DejaVuSans-44" d="M 1259 4147 
L 1259 519 
L 2022 519 
Q 2988 519 3436 956 
Q 3884 1394 3884 2338 
Q 3884 3275 3436 3711 
Q 2988 4147 2022 4147 
L 1259 4147 
z
M 628 4666 
L 1925 4666 
Q 3281 4666 3915 4102 
Q 4550 3538 4550 2338 
Q 4550 1131 3912 565 
Q 3275 0 1925 0 
L 628 0 
L 628 4666 
z
" transform="scale(0.015625)"/>
     </defs>
     <use xlink:href="#DejaVuSans-44"/>
    </g>
   </g>
   <g id="text_8">
    <!-- 21.1% -->
    <g transform="translate(222.37301 132.696264) scale(0.1 -0.1)">
     <use xlink:href="#DejaVuSans-32"/>
     <use xlink:href="#DejaVuSans-31" x="63.623047"/>
     <use xlink:href="#DejaVuSans-2e" x="127.246094"/>
     <use xlink:href="#DejaVuSans-31" x="159.033203"/>
     <use xlink:href="#DejaVuSans-25" x="222.65625"/>
    </g>
   </g>
   <g id="text_9">
    <!-- E -->
    <g transform="translate(290.923696 112.53594) scale(0.1 -0.1)">
     <defs>
      <path id="DejaVuSans-45" d="M 628 4666 
L 3578 4666 
L 3578 4134 
L 1259 4134 
L 1259 2753 
L 3481 2753 
L 3481 2222 
L 1259 2222 
L 1259 531 
L 3634 531 
L 3634 0 
L 628 0 
L 628 4666 
z
" transform="scale(0.015625)"/>
     </defs>
     <use xlink:href="#DejaVuSans-45"/>
    </g>
   </g>
   <g id="text_10">
    <!-- 14.9% -->
    <g transform="translate(247.529331 106.792047) scale(0.1 -0.1)">
     <defs>
      <path id="DejaVuSans-34" d="M 2419 4116 
L 825 1625 
L 2419 1625 
L 2419 4116 
z
M 2253 4666 
L 3047 4666 
L 3047 1625 
L 3713 1625 
L 3713 1100 
L 3047 1100 
L 3047 0 
L 2419 0 
L 2419 1100 
L 313 1100 
L 313 1709 
L 2253 4666 
z
" transform="scale(0.015625)"/>
      <path id="DejaVuSans-39" d="M 703 97 
L 703 672 
Q 941 559 1184 500 
Q 1428 441 1663 441 
Q 2288 441 2617 861 
Q 2947 1281 2994 2138 
Q 2813 1869 2534 1725 
Q 2256 1581 1919 1581 
Q 1219 1581 811 2004 
Q 403 2428 403 3163 
Q 403 3881 828 4315 
Q 1253 4750 1959 4750 
Q 2769 4750 3195 4129 
Q 3622 3509 3622 2328 
Q 3622 1225 3098 567 
Q 2575 -91 1691 -91 
Q 1453 -91 1209 -44 
Q 966 3 703 97 
z
M 1959 2075 
Q 2384 2075 2632 2365 
Q 2881 2656 2881 3163 
Q 2881 3666 2632 3958 
Q 2384 4250 1959 4250 
Q 1534 4250 1286 3958 
Q 1038 3666 1038 3163 
Q 1038 2656 1286 2365 
Q 1534 2075 1959 2075 
z
" transform="scale(0.015625)"/>
     </defs>
     <use xlink:href="#DejaVuSans-31"/>
     <use xlink:href="#DejaVuSans-34" x="63.623047"/>
     <use xlink:href="#DejaVuSans-2e" x="127.246094"/>
     <use xlink:href="#DejaVuSans-39" x="159.033203"/>
     <use xlink:href="#DejaVuSans-25" x="222.65625"/>
    </g>
   </g>
   <g id="text_11">
    <!-- Tytuł 1 -->
    <g transform="translate(210.537187 20.88) scale(0.12 -0.12)">
     <defs>
      <path id="DejaVuSans-54" d="M -19 4666 
L 3928 4666 
L 3928 4134 
L 2272 4134 
L 2272 0 
L 1638 0 
L 1638 4134 
L -19 4134 
L -19 4666 
z
" transform="scale(0.015625)"/>
      <path id="DejaVuSans-79" d="M 2059 -325 
Q 1816 -950 1584 -1140 
Q 1353 -1331 966 -1331 
L 506 -1331 
L 506 -850 
L 844 -850 
Q 1081 -850 1212 -737 
Q 1344 -625 1503 -206 
L 1606 56 
L 191 3500 
L 800 3500 
L 1894 763 
L 2988 3500 
L 3597 3500 
L 2059 -325 
z
" transform="scale(0.015625)"/>
      <path id="DejaVuSans-74" d="M 1172 4494 
L 1172 3500 
L 2356 3500 
L 2356 3053 
L 1172 3053 
L 1172 1153 
Q 1172 725 1289 603 
Q 1406 481 1766 481 
L 2356 481 
L 2356 0 
L 1766 0 
Q 1100 0 847 248 
Q 594 497 594 1153 
L 594 3053 
L 172 3053 
L 172 3500 
L 594 3500 
L 594 4494 
L 1172 4494 
z
" transform="scale(0.015625)"/>
      <path id="DejaVuSans-75" d="M 544 1381 
L 544 3500 
L 1119 3500 
L 1119 1403 
Q 1119 906 1312 657 
Q 1506 409 1894 409 
Q 2359 409 2629 706 
Q 2900 1003 2900 1516 
L 2900 3500 
L 3475 3500 
L 3475 0 
L 2900 0 
L 2900 538 
Q 2691 219 2414 64 
Q 2138 -91 1772 -91 
Q 1169 -91 856 284 
Q 544 659 544 1381 
z
M 1991 3584 
L 1991 3584 
z
" transform="scale(0.015625)"/>
      <path id="DejaVuSans-142" d="M 622 4863 
L 1197 4863 
L 1197 2981 
L 1588 3263 
L 1825 2931 
L 1197 2491 
L 1197 0 
L 622 0 
L 622 2081 
L 238 1806 
L 6 2138 
L 622 2578 
L 622 4863 
z
" transform="scale(0.015625)"/>
      <path id="DejaVuSans-20" transform="scale(0.015625)"/>
     </defs>
     <use xlink:href="#DejaVuSans-54"/>
     <use xlink:href="#DejaVuSans-79" x="45.458984"/>
     <use xlink:href="#DejaVuSans-74" x="104.638672"/>
     <use xlink:href="#DejaVuSans-75" x="143.847656"/>
     <use xlink:href="#DejaVuSans-142" x="207.226562"/>
     <use xlink:href="#DejaVuSans-20" x="235.644531"/>
     <use xlink:href="#DejaVuSans-31" x="267.431641"/>
    </g>
   </g>
  </g>
  <g id="axes_2">
   <g id="patch_12">
    <path d="M 283.568599 251.116459 
C 281.602387 243.778458 278.168768 236.914671 273.47569 230.940789 
C 268.782613 224.966907 262.926772 220.006014 256.262816 216.358558 
C 249.598861 212.711102 242.264091 210.452233 234.702726 209.718756 
C 227.14136 208.985279 219.509189 209.792306 212.268441 212.090961 
L 229.27584 265.66416 
L 283.568599 251.116459 
z
" style="fill: #13433e; opacity: 0.5; stroke: #13433e; stroke-linejoin: miter"/>
   </g>
   <g id="patch_13">
    <path d="M 207.618991 208.93248 
C 195.604412 212.746639 185.215245 220.493789 178.131886 230.920866 
C 171.048527 241.347943 167.674637 253.860736 168.555926 266.435363 
L 224.62639 262.505679 
L 207.618991 208.93248 
z
" style="fill: #4c3200; opacity: 0.5; stroke: #4c3200; stroke-linejoin: miter"/>
   </g>
   <g id="patch_14">
    <path d="M 173.205377 269.593844 
C 173.759393 277.498798 175.978889 285.197964 179.717831 292.184775 
C 183.456774 299.171587 188.631323 305.289376 194.901021 310.135624 
L 229.27584 265.66416 
L 173.205377 269.593844 
z
" style="fill: #41320a; opacity: 0.5; stroke: #41320a; stroke-linejoin: miter"/>
   </g>
   <g id="patch_15">
    <path d="M 194.901021 310.135624 
C 200.888069 314.763393 207.748455 318.134837 215.069884 320.047338 
C 222.391313 321.95984 230.02412 322.374303 237.509589 321.26582 
L 229.27584 265.66416 
L 194.901021 310.135624 
z
" style="fill: #002600; opacity: 0.5; stroke: #002600; stroke-linejoin: miter"/>
   </g>
   <g id="patch_16">
    <path d="M 237.509589 321.26582 
C 245.34845 320.105006 252.853942 317.299493 259.532242 313.03387 
C 266.210542 308.768247 271.911899 303.138164 276.261194 296.514051 
C 280.610488 289.889939 283.510194 282.420333 284.769525 274.596695 
C 286.028856 266.773056 285.619574 258.770819 283.568607 251.11649 
L 229.27584 265.66416 
L 237.509589 321.26582 
z
" style="fill: #4c1500; opacity: 0.5; stroke: #4c1500; stroke-linejoin: miter"/>
   </g>
   <g id="patch_17">
    <path d="M 284.692759 249.992299 
C 282.726547 242.654298 279.292928 235.790511 274.59985 229.816629 
C 269.906773 223.842747 264.050932 218.881854 257.386976 215.234398 
C 250.723021 211.586942 243.388251 209.328073 235.826886 208.594596 
C 228.26552 207.861119 220.633349 208.668146 213.392601 210.966801 
L 230.4 264.54 
L 284.692759 249.992299 
z
" style="fill: #40e0d0"/>
   </g>
   <g id="patch_18">
    <path d="M 208.743151 207.80832 
C 196.728572 211.622479 186.339405 219.369629 179.256046 229.796706 
C 172.172687 240.223783 168.798797 252.736576 169.680086 265.311203 
L 225.75055 261.381519 
L 208.743151 207.80832 
z
" style="fill: #ffa500"/>
   </g>
   <g id="patch_19">
    <path d="M 174.329537 268.469684 
C 174.883553 276.374638 177.103049 284.073804 180.841991 291.060615 
C 184.580934 298.047427 189.755483 304.165216 196.025181 309.011464 
L 230.4 264.54 
L 174.329537 268.469684 
z
" style="fill: #daa520"/>
   </g>
   <g id="patch_20">
    <path d="M 196.025181 309.011464 
C 202.012229 313.639233 208.872615 317.010677 216.194044 318.923178 
C 223.515473 320.83568 231.14828 321.250143 238.633749 320.14166 
L 230.4 264.54 
L 196.025181 309.011464 
z
" style="fill: #008000"/>
   </g>
   <g id="patch_21">
    <path d="M 238.633749 320.14166 
C 246.47261 318.980846 253.978102 316.175333 260.656402 311.90971 
C 267.334702 307.644087 273.036059 302.014004 277.385354 295.389891 
C 281.734648 288.765779 284.634354 281.296173 285.893685 273.472535 
C 287.153016 265.648896 286.743734 257.646659 284.692767 249.99233 
L 230.4 264.54 
L 238.633749 320.14166 
z
" style="fill: #ff4500"/>
   </g>
   <g id="matplotlib.axis_3"/>
   <g id="matplotlib.axis_4"/>
   <g id="text_12">
    <!-- A -->
    <g transform="translate(260.085674 213.063213) scale(0.1 -0.1)">
     <use xlink:href="#DejaVuSans-41"/>
    </g>
   </g>
   <g id="text_13">
    <!-- 25.7% -->
    <g transform="translate(230.708592 237.716014) scale(0.1 -0.1)">
     <defs>
      <path id="DejaVuSans-35" d="M 691 4666 
L 3169 4666 
L 3169 4134 
L 1269 4134 
L 1269 2991 
Q 1406 3038 1543 3061 
Q 1681 3084 1819 3084 
Q 2600 3084 3056 2656 
Q 3513 2228 3513 1497 
Q 3513 744 3044 326 
Q 2575 -91 1722 -91 
Q 1428 -91 1123 -41 
Q 819 9 494 109 
L 494 744 
Q 775 591 1075 516 
Q 1375 441 1709 441 
Q 2250 441 2565 725 
Q 2881 1009 2881 1497 
Q 2881 1984 2565 2268 
Q 2250 2553 1709 2553 
Q 1456 2553 1204 2497 
Q 953 2441 691 2322 
L 691 4666 
z
" transform="scale(0.015625)"/>
     </defs>
     <use xlink:href="#DejaVuSans-32"/>
     <use xlink:href="#DejaVuSans-35" x="63.623047"/>
     <use xlink:href="#DejaVuSans-2e" x="127.246094"/>
     <use xlink:href="#DejaVuSans-37" x="159.033203"/>
     <use xlink:href="#DejaVuSans-25" x="222.65625"/>
    </g>
   </g>
   <g id="text_14">
    <!-- B -->
    <g transform="translate(167.745658 229.3976) scale(0.1 -0.1)">
     <use xlink:href="#DejaVuSans-42"/>
    </g>
   </g>
   <g id="text_15">
    <!-- 21.2% -->
    <g transform="translate(181.970254 245.190006) scale(0.1 -0.1)">
     <use xlink:href="#DejaVuSans-32"/>
     <use xlink:href="#DejaVuSans-31" x="63.623047"/>
     <use xlink:href="#DejaVuSans-2e" x="127.246094"/>
     <use xlink:href="#DejaVuSans-32" x="159.033203"/>
     <use xlink:href="#DejaVuSans-25" x="222.65625"/>
    </g>
   </g>
   <g id="text_16">
    <!-- C -->
    <g transform="translate(168.903378 296.472052) scale(0.1 -0.1)">
     <use xlink:href="#DejaVuSans-43"/>
    </g>
   </g>
   <g id="text_17">
    <!-- 13.4% -->
    <g transform="translate(184.781601 283.211744) scale(0.1 -0.1)">
     <defs>
      <path id="DejaVuSans-33" d="M 2597 2516 
Q 3050 2419 3304 2112 
Q 3559 1806 3559 1356 
Q 3559 666 3084 287 
Q 2609 -91 1734 -91 
Q 1441 -91 1130 -33 
Q 819 25 488 141 
L 488 750 
Q 750 597 1062 519 
Q 1375 441 1716 441 
Q 2309 441 2620 675 
Q 2931 909 2931 1356 
Q 2931 1769 2642 2001 
Q 2353 2234 1838 2234 
L 1294 2234 
L 1294 2753 
L 1863 2753 
Q 2328 2753 2575 2939 
Q 2822 3125 2822 3475 
Q 2822 3834 2567 4026 
Q 2313 4219 1838 4219 
Q 1578 4219 1281 4162 
Q 984 4106 628 3988 
L 628 4550 
Q 988 4650 1302 4700 
Q 1616 4750 1894 4750 
Q 2613 4750 3031 4423 
Q 3450 4097 3450 3541 
Q 3450 3153 3228 2886 
Q 3006 2619 2597 2516 
z
" transform="scale(0.015625)"/>
     </defs>
     <use xlink:href="#DejaVuSans-31"/>
     <use xlink:href="#DejaVuSans-33" x="63.623047"/>
     <use xlink:href="#DejaVuSans-2e" x="127.246094"/>
     <use xlink:href="#DejaVuSans-34" x="159.033203"/>
     <use xlink:href="#DejaVuSans-25" x="222.65625"/>
    </g>
   </g>
   <g id="text_18">
    <!-- D -->
    <g transform="translate(207.073448 327.120871) scale(0.1 -0.1)">
     <use xlink:href="#DejaVuSans-44"/>
    </g>
   </g>
   <g id="text_19">
    <!-- 12.8% -->
    <g transform="translate(205.992833 299.929282) scale(0.1 -0.1)">
     <use xlink:href="#DejaVuSans-31"/>
     <use xlink:href="#DejaVuSans-32" x="63.623047"/>
     <use xlink:href="#DejaVuSans-2e" x="127.246094"/>
     <use xlink:href="#DejaVuSans-38" x="159.033203"/>
     <use xlink:href="#DejaVuSans-25" x="222.65625"/>
    </g>
   </g>
   <g id="text_20">
    <!-- E -->
    <g transform="translate(282.083889 301.234256) scale(0.1 -0.1)">
     <use xlink:href="#DejaVuSans-45"/>
    </g>
   </g>
   <g id="text_21">
    <!-- 26.8% -->
    <g transform="translate(242.707618 285.80931) scale(0.1 -0.1)">
     <defs>
      <path id="DejaVuSans-36" d="M 2113 2584 
Q 1688 2584 1439 2293 
Q 1191 2003 1191 1497 
Q 1191 994 1439 701 
Q 1688 409 2113 409 
Q 2538 409 2786 701 
Q 3034 994 3034 1497 
Q 3034 2003 2786 2293 
Q 2538 2584 2113 2584 
z
M 3366 4563 
L 3366 3988 
Q 3128 4100 2886 4159 
Q 2644 4219 2406 4219 
Q 1781 4219 1451 3797 
Q 1122 3375 1075 2522 
Q 1259 2794 1537 2939 
Q 1816 3084 2150 3084 
Q 2853 3084 3261 2657 
Q 3669 2231 3669 1497 
Q 3669 778 3244 343 
Q 2819 -91 2113 -91 
Q 1303 -91 875 529 
Q 447 1150 447 2328 
Q 447 3434 972 4092 
Q 1497 4750 2381 4750 
Q 2619 4750 2861 4703 
Q 3103 4656 3366 4563 
z
" transform="scale(0.015625)"/>
     </defs>
     <use xlink:href="#DejaVuSans-32"/>
     <use xlink:href="#DejaVuSans-36" x="63.623047"/>
     <use xlink:href="#DejaVuSans-2e" x="127.246094"/>
     <use xlink:href="#DejaVuSans-38" x="159.033203"/>
     <use xlink:href="#DejaVuSans-25" x="222.65625"/>
    </g>
   </g>
   <g id="text_22">
    <!-- Tytuł 2 -->
    <g transform="translate(210.537188 188.28) scale(0.12 -0.12)">
     <use xlink:href="#DejaVuSans-54"/>
     <use xlink:href="#DejaVuSans-79" x="45.458984"/>
     <use xlink:href="#DejaVuSans-74" x="104.638672"/>
     <use xlink:href="#DejaVuSans-75" x="143.847656"/>
     <use xlink:href="#DejaVuSans-142" x="207.226562"/>
     <use xlink:href="#DejaVuSans-20" x="235.644531"/>
     <use xlink:href="#DejaVuSans-32" x="267.431641"/>
    </g>
   </g>
  </g>
 </g>
</svg>
